# xmcd
#
# Track frame offsets: 
#        300
#        2584
#        6643
#        8009
#        12963
#        16148
#        17840
#        21195
#        23536
#        25644
#        31061
#        35337
#        37498
#        38800
#        42427
#        45228
#        48852
#        50869
#        54300
#        56763
#        59568
#        61613
#        64125
#        66269
#        69467
#        74710
#        76316
#        78939
#        85233
#        86978
#        88900
#        90214
#        91953
#        94409
#        95967
#        97063
#        100641
#        103891
#        110590
#        112492
#        115701
#        119049
#        120781
#        122952
#        124217
#        126631
#        129261
#        132980
#        134621
#        137199
#        139021
#        140516
#        143202
#        147163
#        150399
#        154311
#        155576
#        158025
#        160363
#        162798
#        164592
#        167487
#        168898
#        170713
#        172793
#        174051
#        175260
#        176480
#        179661
#        183564
#        188040
#        192091
#
# Disc length: 2624 seconds
#
# Revision: 0
# Processed by: cddbd v1.5.2PL0 Copyright (c) Steve Scherf et al.
# Submitted via: ExactAudioCopy v0.99pb4
#
DISCID=f40a3c48
DTITLE=Евгений Смирнов - Папина книжка (Вера Рычихина)
DYEAR=2006
DGENRE=Chorus
TTITLE0=Музыкальный фрагмент
TTITLE1=Подарок
TTITLE2=Капуста
TTITLE3=Задали вы мне вопрос
TTITLE4=Туча-бегемот
TTITLE5=Сметана и коты
TTITLE6=Бутафория
TTITLE7=Как их отличать
TTITLE8=Песенка про лето
TTITLE9=Дверь
TTITLE10=Одноклассница моя
TTITLE11=Чемпион
TTITLE12=Помыла
TTITLE13=Музыкальный фрагмент
TTITLE14=Заржавели
TTITLE15=Грусть переменилась
TTITLE16=шляпа для папы
TTITLE17=Мяучила
TTITLE18=Кошка рассердилась
TTITLE19=Квакалки
TTITLE20=Картошка
TTITLE21=Апрель разапрелился
TTITLE22=Карякалы
TTITLE23=Музыкальный фрагмент
TTITLE24=Грое и несчастье
TTITLE25=Обновки
TTITLE26=Ешьте, детки
TTITLE27=В деревне Собакино
TTITLE28=Черника
TTITLE29=Мартовские лучики
TTITLE30=За радугой
TTITLE31=Кикимора Болотная
TTITLE32=Если любишь плакать
TTITLE33=Полевые цветы
TTITLE34=Ножки
TTITLE35=Музыкальный фрагмент
TTITLE36=На весенней пашне
TTITLE37=Как мы искали полезное дело
TTITLE38=Две галоши
TTITLE39=Пирог на день рождения
TTITLE40=Старается
TTITLE41=На угоре елочка
TTITLE42=В небе парила
TTITLE43=Муравьишка
TTITLE44=Барабан
TTITLE45=Для чего?
TTITLE46=Музыкальный фрагмент
TTITLE47=Пенки для Ленки
TTITLE48=Две пчёлки на елке
TTITLE49=Ночью
TTITLE50=Заноза
TTITLE51=Маленькая тучка
TTITLE52=Мне не страшно
TTITLE53=Чья шкатулка?
TTITLE54=Считает
TTITLE55=Карандаши
TTITLE56=Красивые грибы
TTITLE57=Музыкальный фрагмент
TTITLE58=Школьный ранец
TTITLE59=Первоклашки
TTITLE60=Любим лето
TTITLE61=Солнышко
TTITLE62=Петух-задира
TTITLE63=Писала лапой курица
TTITLE64=Крот
TTITLE65=Одуванчик
TTITLE66=Стрекоза
TTITLE67=Попугай в клетке
TTITLE68=Захотелось петуху полетать
TTITLE69=Как пятый класс ходил в кино
TTITLE70=Елочка
TTITLE71=Музыкальный фрагмент
EXTD=
EXTT0=
EXTT1=
EXTT2=
EXTT3=
EXTT4=
EXTT5=
EXTT6=
EXTT7=
EXTT8=
EXTT9=
EXTT10=
EXTT11=
EXTT12=
EXTT13=
EXTT14=
EXTT15=
EXTT16=
EXTT17=
EXTT18=
EXTT19=
EXTT20=
EXTT21=
EXTT22=
EXTT23=
EXTT24=
EXTT25=
EXTT26=
EXTT27=
EXTT28=
EXTT29=
EXTT30=
EXTT31=
EXTT32=
EXTT33=
EXTT34=
EXTT35=
EXTT36=
EXTT37=
EXTT38=
EXTT39=
EXTT40=
EXTT41=
EXTT42=
EXTT43=
EXTT44=
EXTT45=
EXTT46=
EXTT47=
EXTT48=
EXTT49=
EXTT50=
EXTT51=
EXTT52=
EXTT53=
EXTT54=
EXTT55=
EXTT56=
EXTT57=
EXTT58=
EXTT59=
EXTT60=
EXTT61=
EXTT62=
EXTT63=
EXTT64=
EXTT65=
EXTT66=
EXTT67=
EXTT68=
EXTT69=
EXTT70=
EXTT71=
PLAYORDER=
